#N canvas -9 -9 1920 976 12;
#X floatatom 252 62 5 0 0 0 - - -;
#X obj 252 212 line;
#X obj 252 282 vsl 15 128 0.01 1 1 0 empty empty empty 0 -9 0 10 -262144
-1 -1 0 1;
#X obj 180 488 osc~;
#X obj 223 567 dac~;
#X obj 237 523 *~;
#X obj 112 412 pipe 250;
#X obj 252 92 sel 1 2;
#X text 358 5 Recibe data del puerto;
#X text 320 92 Tira un bang según el input;
#X text 353 164 Rampas \, valores:;
#X text 419 190 1 A dónde ir;
#X text 420 213 2 En cuánto tiempo;
#X text 354 241 Ejemplo: 3 2500 ir a 3 en dos segs y 1/2;
#X text 12 432 Delay de 1/4 seg.;
#X text 268 458 Frecuencia máxima;
#X text 273 491 Oscilador;
#X text 277 522 Multiplica por amplitud;
#X obj 522 432 vsl 15 128 0.01 1 1 0 empty empty empty 0 -9 0 10 -262144
-1 -1 0 1;
#X floatatom 522 574 5 0 0 0 - - -;
#X text 462 602 amplitud = 0.083;
#X text 289 352 Slide \, rango 0-1 log;
#X msg 309 132 1 2000;
#X obj 837 174 line;
#X obj 837 264 vsl 15 128 0.01 1 1 0 empty empty empty 0 -9 0 10 -262144
-1 -1 0 1;
#X text 874 314 Slide \, rango 0-1 log;
#X msg 894 94 1 2000;
#X obj 837 54 sel 2 1;
#X msg 784 94 0 2000;
#X msg 199 132 0 2000;
#X obj 182 462 *~ 50;
#X obj 248 9 r proximity;
#X connect 0 0 7 0;
#X connect 1 0 2 0;
#X connect 2 0 30 0;
#X connect 3 0 5 0;
#X connect 5 0 4 0;
#X connect 5 0 4 1;
#X connect 7 0 29 0;
#X connect 7 1 22 0;
#X connect 18 0 19 0;
#X connect 18 0 5 1;
#X connect 22 0 1 0;
#X connect 23 0 24 0;
#X connect 24 0 18 0;
#X connect 26 0 23 0;
#X connect 27 0 28 0;
#X connect 27 1 26 0;
#X connect 28 0 23 0;
#X connect 29 0 1 0;
#X connect 30 0 3 0;
#X connect 31 0 0 0;
#X connect 31 0 27 0;
